<svg class="icon" style="width: 1em;height: 1em;vertical-align: middle;fill: currentColor;overflow: hidden;" viewBox="0 0 1024 1024" version="1.1" xmlns="http://www.w3.org/2000/svg" p-id="1603"><path d="M895.306966 433.140954c-10.964726 0-20.866237-4.341888-28.269857-11.304464l-0.666172 0.664126c-90.049922-91.508133-215.196177-148.371212-353.726254-148.371212-138.52803 0-263.676331 56.863079-353.726254 148.373259l-0.618077-0.618077c-7.515161 7.721869-17.98256 12.550851-29.609365 12.550851-22.848381 0-41.3692-18.522865-41.3692-41.3692 0-14.405081 7.378038-27.061332 18.543332-34.471093 104.59315-103.291504 248.165056-167.20414 406.779563-167.20414 157.917636 0 300.908304 63.367213 405.38582 165.856445 11.219529 7.40055 18.646686 20.080338 18.646686 34.526351C936.678212 414.620136 918.155347 433.140954 895.306966 433.140954zM275.92633 539.510564c0.176009-0.180102 0.376577-0.332575 0.550539-0.512676 0.388856-0.399089 0.812505-0.74906 1.218758-1.131777 59.974953-60.560284 142.985552-98.260931 234.95008-98.260931 90.817402 0 172.820044 36.851303 232.612848 96.087429 10.197246 7.53358 16.892739 19.541055 16.892739 33.19196 0 22.846334-18.520819 41.367153-41.3692 41.367153-11.624758 0-22.093181-4.830005-29.609365-12.548804l-0.312108 0.312108c-45.122687-46.596248-108.22691-75.671447-178.214914-75.671447-69.985958 0-133.092227 29.076222-178.212868 75.671447l-0.103354-0.101307c-7.402597 6.962575-17.304108 11.30651-28.26781 11.30651-22.848381 0-41.371246-18.522865-41.371246-41.3692 0-10.964726 4.343935-20.866237 11.30651-28.269857L275.92633 539.510564zM512.644683 708.501396c34.271548 0 62.053288 27.783787 62.053288 62.053288s-27.780717 62.053288-62.053288 62.053288-62.053288-27.783787-62.053288-62.053288S478.373135 708.501396 512.644683 708.501396z" fill="#FF6CAF" p-id="1604"></path></svg>