<svg class="icon" style="width: 1em;height: 1em;vertical-align: middle;fill: currentColor;overflow: hidden;" viewBox="0 0 1024 1024" version="1.1" xmlns="http://www.w3.org/2000/svg" p-id="3752"><path d="M458.752 878.1824a422.4512 422.4512 0 0 1-296.9088-123.0848c-166.5536-166.5536-162.9184-438.0672 7.2704-608.256C252.3648 63.5904 360.96 20.1216 473.2416 16.5376c115.8144 0 224.4096 43.4176 304.0768 123.0848 166.5536 166.5536 162.9184 438.0672-7.2192 608.256-90.5216 90.4704-202.752 130.304-311.3984 130.304z m14.4384-782.0288s-3.584-3.584 0 0c-101.376 0-188.2624 36.1984-257.024 104.96-141.2096 141.2608-141.2096 365.7216-3.584 503.296 137.5232 137.5744 358.4 133.9392 499.5584-7.2704 141.2096-141.1584 141.2096-365.6192 7.2704-499.6096a344.832 344.832 0 0 0-246.2208-101.376zM969.216 990.4128a39.1168 39.1168 0 0 1-25.344-10.8544l-133.9904-133.9904a35.0208 35.0208 0 0 1 0-50.688 35.0208 35.0208 0 0 1 50.688 0l133.9904 133.9904a35.0208 35.0208 0 0 1 0 50.688 39.1168 39.1168 0 0 1-25.344 10.8544z" fill="#979797" opacity=".5" p-id="3753"></path></svg>